<svg viewBox="0 0 1024 1024" role="img" aria-label="Clave Profile Relay app icon" xmlns="http://www.w3.org/2000/svg">
  <defs>
    <linearGradient id="baseGradient" x1="156" y1="98" x2="856" y2="930" gradientUnits="userSpaceOnUse">
      <stop offset="0" stop-color="#FBFEFF"/>
      <stop offset="0.28" stop-color="#DAF0FF"/>
      <stop offset="0.62" stop-color="#2A9DFF"/>
      <stop offset="1" stop-color="#0071E3"/>
    </linearGradient>
    <radialGradient id="emeraldGlow" cx="0" cy="0" r="1" gradientUnits="userSpaceOnUse" gradientTransform="translate(760 760) rotate(-128) scale(390)">
      <stop offset="0" stop-color="#10B981" stop-opacity="0.88"/>
      <stop offset="0.52" stop-color="#10B981" stop-opacity="0.34"/>
      <stop offset="1" stop-color="#10B981" stop-opacity="0"/>
    </radialGradient>
    <radialGradient id="topLight" cx="0" cy="0" r="1" gradientUnits="userSpaceOnUse" gradientTransform="translate(278 148) rotate(34) scale(350 196)">
      <stop offset="0" stop-color="#FFFFFF" stop-opacity="0.98"/>
      <stop offset="0.56" stop-color="#FFFFFF" stop-opacity="0.28"/>
      <stop offset="1" stop-color="#FFFFFF" stop-opacity="0"/>
    </radialGradient>
    <linearGradient id="rearCard" x1="256" y1="230" x2="721" y2="793" gradientUnits="userSpaceOnUse">
      <stop offset="0" stop-color="#4DB2FF"/>
      <stop offset="1" stop-color="#0068D9"/>
    </linearGradient>
    <linearGradient id="middleCard" x1="326" y1="238" x2="782" y2="752" gradientUnits="userSpaceOnUse">
      <stop offset="0" stop-color="#F8FAFC"/>
      <stop offset="0.62" stop-color="#77818F"/>
      <stop offset="1" stop-color="#242833"/>
    </linearGradient>
    <linearGradient id="frontCard" x1="281" y1="218" x2="745" y2="737" gradientUnits="userSpaceOnUse">
      <stop offset="0" stop-color="#FFFFFF"/>
      <stop offset="0.62" stop-color="#F6FBFF"/>
      <stop offset="1" stop-color="#DDEEFF"/>
    </linearGradient>
    <linearGradient id="activeDot" x1="621" y1="535" x2="722" y2="657" gradientUnits="userSpaceOnUse">
      <stop offset="0" stop-color="#45E7B1"/>
      <stop offset="1" stop-color="#09B87A"/>
    </linearGradient>
    <linearGradient id="relayBlue" x1="341" y1="495" x2="532" y2="648" gradientUnits="userSpaceOnUse">
      <stop offset="0" stop-color="#0A84FF"/>
      <stop offset="1" stop-color="#0066D6"/>
    </linearGradient>
    <linearGradient id="relayGreen" x1="490" y1="491" x2="688" y2="650" gradientUnits="userSpaceOnUse">
      <stop offset="0" stop-color="#5AF2BE"/>
      <stop offset="1" stop-color="#10B981"/>
    </linearGradient>
    <filter id="appShadow" x="-16%" y="-12%" width="132%" height="134%" color-interpolation-filters="sRGB">
      <feDropShadow dx="0" dy="34" stdDeviation="38" flood-color="#003C86" flood-opacity="0.28"/>
      <feDropShadow dx="0" dy="2" stdDeviation="2" flood-color="#FFFFFF" flood-opacity="0.72"/>
    </filter>
    <filter id="cardShadow" x="-22%" y="-22%" width="144%" height="152%" color-interpolation-filters="sRGB">
      <feDropShadow dx="0" dy="24" stdDeviation="26" flood-color="#004B9D" flood-opacity="0.28"/>
      <feDropShadow dx="0" dy="-2" stdDeviation="2" flood-color="#FFFFFF" flood-opacity="0.68"/>
    </filter>
    <filter id="softBlur" x="-20%" y="-20%" width="140%" height="140%" color-interpolation-filters="sRGB">
      <feGaussianBlur stdDeviation="18"/>
    </filter>
    <clipPath id="iconClip">
      <rect x="64" y="64" width="896" height="896" rx="205"/>
    </clipPath>
  </defs>

  <g filter="url(#appShadow)">
    <rect x="64" y="64" width="896" height="896" rx="205" fill="url(#baseGradient)"/>
    <g clip-path="url(#iconClip)">
      <rect x="64" y="64" width="896" height="896" fill="url(#emeraldGlow)"/>
      <rect x="64" y="64" width="896" height="896" fill="url(#topLight)"/>
      <ellipse cx="264" cy="174" rx="218" ry="76" fill="#FFFFFF" opacity="0.34" transform="rotate(-18 264 174)" filter="url(#softBlur)"/>
      <ellipse cx="834" cy="832" rx="340" ry="168" fill="#004FAE" opacity="0.18" transform="rotate(-26 834 832)" filter="url(#softBlur)"/>
    </g>
    <rect x="67.5" y="67.5" width="889" height="889" rx="201.5" fill="none" stroke="#FFFFFF" stroke-opacity="0.56" stroke-width="7"/>
    <rect x="94" y="94" width="836" height="836" rx="182" fill="none" stroke="#FFFFFF" stroke-opacity="0.16" stroke-width="3"/>
  </g>

  <g filter="url(#cardShadow)">
    <rect x="232" y="318" width="428" height="448" rx="86" fill="url(#rearCard)" transform="rotate(-12 446 542)"/>
    <rect x="354" y="278" width="430" height="454" rx="86" fill="url(#middleCard)" transform="rotate(8 569 505)" opacity="0.96"/>
    <rect x="260" y="252" width="504" height="492" rx="94" fill="url(#frontCard)" transform="rotate(-4 512 498)"/>
    <rect x="284" y="279" width="456" height="438" rx="78" fill="none" stroke="#FFFFFF" stroke-opacity="0.8" stroke-width="8" transform="rotate(-4 512 498)"/>
  </g>

  <g transform="rotate(-4 512 498)">
    <rect x="354" y="342" width="250" height="30" rx="15" fill="#AEB7C1" opacity="0.52"/>
    <rect x="354" y="404" width="332" height="34" rx="17" fill="#C6CED7" opacity="0.72"/>
    <rect x="354" y="466" width="284" height="34" rx="17" fill="#D6DEE7" opacity="0.82"/>
    <path d="M359 586 C421 524 467 524 529 586 C583 640 631 642 688 586" fill="none" stroke="url(#relayBlue)" stroke-width="40" stroke-linecap="round"/>
    <path d="M461 586 C515 532 570 532 625 586 C643 604 661 614 688 614" fill="none" stroke="url(#relayGreen)" stroke-width="34" stroke-linecap="round"/>
    <circle cx="662" cy="586" r="63" fill="#FFFFFF" opacity="0.86"/>
    <circle cx="662" cy="586" r="45" fill="url(#activeDot)"/>
    <circle cx="662" cy="586" r="22" fill="#0B5" opacity="0.52"/>
    <rect x="363" y="674" width="322" height="40" rx="20" fill="#FFFFFF" opacity="0.64"/>
  </g>

  <g opacity="0.78">
    <rect x="376" y="796" width="272" height="30" rx="15" fill="#FFFFFF"/>
    <rect x="430" y="848" width="164" height="24" rx="12" fill="#FFFFFF" opacity="0.72"/>
  </g>
</svg>
